M48
; DRILL file {KiCad 9.0.7} date 2026-04-10T21:23:04+0530
; FORMAT={-:-/ absolute / metric / decimal}
; #@! TF.CreationDate,2026-04-10T21:23:04+05:30
; #@! TF.GenerationSoftware,Kicad,Pcbnew,9.0.7
; #@! TF.FileFunction,Plated,1,2,PTH
FMAT,2
METRIC
; #@! TA.AperFunction,Plated,PTH,ComponentDrill
T1C0.600
; #@! TA.AperFunction,Plated,PTH,ComponentDrill
T2C0.800
; #@! TA.AperFunction,Plated,PTH,ComponentDrill
T3C0.900
; #@! TA.AperFunction,Plated,PTH,ComponentDrill
T4C1.100
%
G90
G05
T1
X145.0Y-72.0
X148.6Y-72.0
T2
X127.5Y-80.25
X127.5Y-85.33
X130.04Y-82.79
X134.75Y-79.0
X134.75Y-86.62
X138.8Y-79.0
X138.8Y-86.62
X160.25Y-81.25
X162.75Y-81.25
T3
X106.71Y-101.25
X109.25Y-101.25
X110.46Y-94.0
X113.0Y-94.0
X114.0Y-104.25
X116.54Y-104.25
X121.96Y-105.5
X124.5Y-105.5
X129.96Y-106.25
X132.5Y-106.25
X138.25Y-106.0
X140.79Y-106.0
X146.25Y-104.5
X148.79Y-104.5
X154.21Y-102.25
X156.75Y-102.25
X162.0Y-99.25
X164.54Y-99.25
X168.975Y-94.75
X171.515Y-94.75
X172.46Y-79.0
X175.0Y-79.0
X175.475Y-88.75
X178.015Y-88.75
X178.975Y-82.25
X181.515Y-82.25
T4
X158.5Y-110.5
X158.5Y-115.0
X165.0Y-110.5
X165.0Y-115.0
M30
