%TF.GenerationSoftware,KiCad,Pcbnew,9.0.7*%
%TF.CreationDate,2026-04-17T14:43:34+05:30*%
%TF.ProjectId,blinkblinkhello,626c696e-6b62-46c6-996e-6b68656c6c6f,rev?*%
%TF.SameCoordinates,Original*%
%TF.FileFunction,Copper,L2,Bot*%
%TF.FilePolarity,Positive*%
%FSLAX46Y46*%
G04 Gerber Fmt 4.6, Leading zero omitted, Abs format (unit mm)*
G04 Created by KiCad (PCBNEW 9.0.7) date 2026-04-17 14:43:34*
%MOMM*%
%LPD*%
G01*
G04 APERTURE LIST*
G04 Aperture macros list*
%AMRoundRect*
0 Rectangle with rounded corners*
0 $1 Rounding radius*
0 $2 $3 $4 $5 $6 $7 $8 $9 X,Y pos of 4 corners*
0 Add a 4 corners polygon primitive as box body*
4,1,4,$2,$3,$4,$5,$6,$7,$8,$9,$2,$3,0*
0 Add four circle primitives for the rounded corners*
1,1,$1+$1,$2,$3*
1,1,$1+$1,$4,$5*
1,1,$1+$1,$6,$7*
1,1,$1+$1,$8,$9*
0 Add four rect primitives between the rounded corners*
20,1,$1+$1,$2,$3,$4,$5,0*
20,1,$1+$1,$4,$5,$6,$7,0*
20,1,$1+$1,$6,$7,$8,$9,0*
20,1,$1+$1,$8,$9,$2,$3,0*%
G04 Aperture macros list end*
%TA.AperFunction,ComponentPad*%
%ADD10R,1.800000X1.800000*%
%TD*%
%TA.AperFunction,ComponentPad*%
%ADD11C,1.800000*%
%TD*%
%TA.AperFunction,ComponentPad*%
%ADD12C,1.440000*%
%TD*%
%TA.AperFunction,ComponentPad*%
%ADD13RoundRect,0.250000X-0.550000X-0.550000X0.550000X-0.550000X0.550000X0.550000X-0.550000X0.550000X0*%
%TD*%
%TA.AperFunction,ComponentPad*%
%ADD14C,1.600000*%
%TD*%
%TA.AperFunction,ComponentPad*%
%ADD15C,2.000000*%
%TD*%
%TA.AperFunction,Conductor*%
%ADD16C,0.200000*%
%TD*%
G04 APERTURE END LIST*
D10*
%TO.P,D4,1,K*%
%TO.N,GND*%
X121960000Y-105500000D03*
D11*
%TO.P,D4,2,A*%
%TO.N,TOUT*%
X124500000Y-105500000D03*
%TD*%
D10*
%TO.P,D2,1,K*%
%TO.N,GND*%
X106710000Y-101250000D03*
D11*
%TO.P,D2,2,A*%
%TO.N,TOUT*%
X109250000Y-101250000D03*
%TD*%
D10*
%TO.P,D9,1,K*%
%TO.N,GND*%
X162000000Y-99250000D03*
D11*
%TO.P,D9,2,A*%
%TO.N,TOUT*%
X164540000Y-99250000D03*
%TD*%
D10*
%TO.P,D13,1,K*%
%TO.N,GND*%
X172460000Y-79000000D03*
D11*
%TO.P,D13,2,A*%
%TO.N,TOUT*%
X175000000Y-79000000D03*
%TD*%
D12*
%TO.P,R3,1*%
%TO.N,Net-(U1-VCC)*%
X127500000Y-85330000D03*
%TO.P,R3,2*%
%TO.N,Net-(U1-DISCH)*%
X130040000Y-82790000D03*
%TO.P,R3,3*%
%TO.N,N/C*%
X127500000Y-80250000D03*
%TD*%
D13*
%TO.P,C1,1*%
%TO.N,Net-(U1-THRES)*%
X160250000Y-81250000D03*
D14*
%TO.P,C1,2*%
%TO.N,GND*%
X162750000Y-81250000D03*
%TD*%
D10*
%TO.P,D8,1,K*%
%TO.N,GND*%
X154210000Y-102250000D03*
D11*
%TO.P,D8,2,A*%
%TO.N,TOUT*%
X156750000Y-102250000D03*
%TD*%
D14*
%TO.P,R1,1*%
%TO.N,Net-(U1-OUT)*%
X134750000Y-86620000D03*
%TO.P,R1,2*%
%TO.N,TOUT*%
X134750000Y-79000000D03*
%TD*%
D13*
%TO.P,BT1,1,+*%
%TO.N,Net-(BT1-+)*%
X145000000Y-72000000D03*
D14*
%TO.P,BT1,2,-*%
%TO.N,GND*%
X148600000Y-72000000D03*
%TD*%
D10*
%TO.P,D1,1,K*%
%TO.N,GND*%
X110460000Y-94000000D03*
D11*
%TO.P,D1,2,A*%
%TO.N,TOUT*%
X113000000Y-94000000D03*
%TD*%
D10*
%TO.P,D11,1,K*%
%TO.N,GND*%
X175475000Y-88750000D03*
D11*
%TO.P,D11,2,A*%
%TO.N,TOUT*%
X178015000Y-88750000D03*
%TD*%
D10*
%TO.P,D5,1,K*%
%TO.N,GND*%
X129960000Y-106250000D03*
D11*
%TO.P,D5,2,A*%
%TO.N,TOUT*%
X132500000Y-106250000D03*
%TD*%
D14*
%TO.P,R2,1*%
%TO.N,Net-(U1-DISCH)*%
X138800000Y-86620000D03*
%TO.P,R2,2*%
%TO.N,Net-(U1-THRES)*%
X138800000Y-79000000D03*
%TD*%
D10*
%TO.P,D6,1,K*%
%TO.N,GND*%
X138250000Y-106000000D03*
D11*
%TO.P,D6,2,A*%
%TO.N,TOUT*%
X140790000Y-106000000D03*
%TD*%
D10*
%TO.P,D10,1,K*%
%TO.N,GND*%
X168975000Y-94750000D03*
D11*
%TO.P,D10,2,A*%
%TO.N,TOUT*%
X171515000Y-94750000D03*
%TD*%
D10*
%TO.P,D7,1,K*%
%TO.N,GND*%
X146250000Y-104500000D03*
D11*
%TO.P,D7,2,A*%
%TO.N,TOUT*%
X148790000Y-104500000D03*
%TD*%
D10*
%TO.P,D3,1,K*%
%TO.N,GND*%
X114000000Y-104250000D03*
D11*
%TO.P,D3,2,A*%
%TO.N,TOUT*%
X116540000Y-104250000D03*
%TD*%
D10*
%TO.P,D12,1,K*%
%TO.N,GND*%
X178975000Y-82250000D03*
D11*
%TO.P,D12,2,A*%
%TO.N,TOUT*%
X181515000Y-82250000D03*
%TD*%
D15*
%TO.P,SW1,1,1*%
%TO.N,Net-(U1-VCC)*%
X158500000Y-110500000D03*
X165000000Y-110500000D03*
%TO.P,SW1,2,2*%
%TO.N,Net-(BT1-+)*%
X158500000Y-115000000D03*
X165000000Y-115000000D03*
%TD*%
D16*
%TO.N,Net-(BT1-+)*%
X164000000Y-115750000D02*
X164250000Y-115750000D01*
X145000000Y-72000000D02*
X159801000Y-86801000D01*
X164250000Y-115750000D02*
X165000000Y-115000000D01*
X159801000Y-111551000D02*
X164000000Y-115750000D01*
X159801000Y-86801000D02*
X159801000Y-111551000D01*
%TO.N,GND*%
X148600000Y-72000000D02*
X153500000Y-72000000D01*
X153500000Y-72000000D02*
X162750000Y-81250000D01*
%TO.N,Net-(U1-VCC)*%
X157072950Y-110500000D02*
X131902950Y-85330000D01*
X131902950Y-85330000D02*
X127500000Y-85330000D01*
X158500000Y-110500000D02*
X157072950Y-110500000D01*
%TD*%
M02*
