%TF.GenerationSoftware,KiCad,Pcbnew,9.0.7*%
%TF.CreationDate,2026-04-17T14:43:34+05:30*%
%TF.ProjectId,blinkblinkhello,626c696e-6b62-46c6-996e-6b68656c6c6f,rev?*%
%TF.SameCoordinates,Original*%
%TF.FileFunction,Copper,L1,Top*%
%TF.FilePolarity,Positive*%
%FSLAX46Y46*%
G04 Gerber Fmt 4.6, Leading zero omitted, Abs format (unit mm)*
G04 Created by KiCad (PCBNEW 9.0.7) date 2026-04-17 14:43:34*
%MOMM*%
%LPD*%
G01*
G04 APERTURE LIST*
G04 Aperture macros list*
%AMRoundRect*
0 Rectangle with rounded corners*
0 $1 Rounding radius*
0 $2 $3 $4 $5 $6 $7 $8 $9 X,Y pos of 4 corners*
0 Add a 4 corners polygon primitive as box body*
4,1,4,$2,$3,$4,$5,$6,$7,$8,$9,$2,$3,0*
0 Add four circle primitives for the rounded corners*
1,1,$1+$1,$2,$3*
1,1,$1+$1,$4,$5*
1,1,$1+$1,$6,$7*
1,1,$1+$1,$8,$9*
0 Add four rect primitives between the rounded corners*
20,1,$1+$1,$2,$3,$4,$5,0*
20,1,$1+$1,$4,$5,$6,$7,0*
20,1,$1+$1,$6,$7,$8,$9,0*
20,1,$1+$1,$8,$9,$2,$3,0*%
G04 Aperture macros list end*
%TA.AperFunction,ComponentPad*%
%ADD10R,1.800000X1.800000*%
%TD*%
%TA.AperFunction,ComponentPad*%
%ADD11C,1.800000*%
%TD*%
%TA.AperFunction,ComponentPad*%
%ADD12C,1.440000*%
%TD*%
%TA.AperFunction,ComponentPad*%
%ADD13RoundRect,0.250000X-0.550000X-0.550000X0.550000X-0.550000X0.550000X0.550000X-0.550000X0.550000X0*%
%TD*%
%TA.AperFunction,ComponentPad*%
%ADD14C,1.600000*%
%TD*%
%TA.AperFunction,SMDPad,CuDef*%
%ADD15RoundRect,0.150000X-0.825000X-0.150000X0.825000X-0.150000X0.825000X0.150000X-0.825000X0.150000X0*%
%TD*%
%TA.AperFunction,ComponentPad*%
%ADD16C,2.000000*%
%TD*%
%TA.AperFunction,Conductor*%
%ADD17C,0.200000*%
%TD*%
G04 APERTURE END LIST*
D10*
%TO.P,D4,1,K*%
%TO.N,GND*%
X121960000Y-105500000D03*
D11*
%TO.P,D4,2,A*%
%TO.N,TOUT*%
X124500000Y-105500000D03*
%TD*%
D10*
%TO.P,D2,1,K*%
%TO.N,GND*%
X106710000Y-101250000D03*
D11*
%TO.P,D2,2,A*%
%TO.N,TOUT*%
X109250000Y-101250000D03*
%TD*%
D10*
%TO.P,D9,1,K*%
%TO.N,GND*%
X162000000Y-99250000D03*
D11*
%TO.P,D9,2,A*%
%TO.N,TOUT*%
X164540000Y-99250000D03*
%TD*%
D10*
%TO.P,D13,1,K*%
%TO.N,GND*%
X172460000Y-79000000D03*
D11*
%TO.P,D13,2,A*%
%TO.N,TOUT*%
X175000000Y-79000000D03*
%TD*%
D12*
%TO.P,R3,1*%
%TO.N,Net-(U1-VCC)*%
X127500000Y-85330000D03*
%TO.P,R3,2*%
%TO.N,Net-(U1-DISCH)*%
X130040000Y-82790000D03*
%TO.P,R3,3*%
%TO.N,N/C*%
X127500000Y-80250000D03*
%TD*%
D13*
%TO.P,C1,1*%
%TO.N,Net-(U1-THRES)*%
X160250000Y-81250000D03*
D14*
%TO.P,C1,2*%
%TO.N,GND*%
X162750000Y-81250000D03*
%TD*%
D10*
%TO.P,D8,1,K*%
%TO.N,GND*%
X154210000Y-102250000D03*
D11*
%TO.P,D8,2,A*%
%TO.N,TOUT*%
X156750000Y-102250000D03*
%TD*%
D14*
%TO.P,R1,1*%
%TO.N,Net-(U1-OUT)*%
X134750000Y-86620000D03*
%TO.P,R1,2*%
%TO.N,TOUT*%
X134750000Y-79000000D03*
%TD*%
D15*
%TO.P,U1,1,GND*%
%TO.N,GND*%
X146750000Y-87250000D03*
%TO.P,U1,2,TRIG*%
%TO.N,Net-(U1-THRES)*%
X146750000Y-88520000D03*
%TO.P,U1,3,OUT*%
%TO.N,Net-(U1-OUT)*%
X146750000Y-89790000D03*
%TO.P,U1,4,~{RST}*%
%TO.N,Net-(U1-VCC)*%
X146750000Y-91060000D03*
%TO.P,U1,5,CONT*%
%TO.N,unconnected-(U1-CONT-Pad5)*%
X151700000Y-91060000D03*
%TO.P,U1,6,THRES*%
%TO.N,Net-(U1-THRES)*%
X151700000Y-89790000D03*
%TO.P,U1,7,DISCH*%
%TO.N,Net-(U1-DISCH)*%
X151700000Y-88520000D03*
%TO.P,U1,8,VCC*%
%TO.N,Net-(U1-VCC)*%
X151700000Y-87250000D03*
%TD*%
D13*
%TO.P,BT1,1,+*%
%TO.N,Net-(BT1-+)*%
X145000000Y-72000000D03*
D14*
%TO.P,BT1,2,-*%
%TO.N,GND*%
X148600000Y-72000000D03*
%TD*%
D10*
%TO.P,D1,1,K*%
%TO.N,GND*%
X110460000Y-94000000D03*
D11*
%TO.P,D1,2,A*%
%TO.N,TOUT*%
X113000000Y-94000000D03*
%TD*%
D10*
%TO.P,D11,1,K*%
%TO.N,GND*%
X175475000Y-88750000D03*
D11*
%TO.P,D11,2,A*%
%TO.N,TOUT*%
X178015000Y-88750000D03*
%TD*%
D10*
%TO.P,D5,1,K*%
%TO.N,GND*%
X129960000Y-106250000D03*
D11*
%TO.P,D5,2,A*%
%TO.N,TOUT*%
X132500000Y-106250000D03*
%TD*%
D14*
%TO.P,R2,1*%
%TO.N,Net-(U1-DISCH)*%
X138800000Y-86620000D03*
%TO.P,R2,2*%
%TO.N,Net-(U1-THRES)*%
X138800000Y-79000000D03*
%TD*%
D10*
%TO.P,D6,1,K*%
%TO.N,GND*%
X138250000Y-106000000D03*
D11*
%TO.P,D6,2,A*%
%TO.N,TOUT*%
X140790000Y-106000000D03*
%TD*%
D10*
%TO.P,D10,1,K*%
%TO.N,GND*%
X168975000Y-94750000D03*
D11*
%TO.P,D10,2,A*%
%TO.N,TOUT*%
X171515000Y-94750000D03*
%TD*%
D10*
%TO.P,D7,1,K*%
%TO.N,GND*%
X146250000Y-104500000D03*
D11*
%TO.P,D7,2,A*%
%TO.N,TOUT*%
X148790000Y-104500000D03*
%TD*%
D10*
%TO.P,D3,1,K*%
%TO.N,GND*%
X114000000Y-104250000D03*
D11*
%TO.P,D3,2,A*%
%TO.N,TOUT*%
X116540000Y-104250000D03*
%TD*%
D10*
%TO.P,D12,1,K*%
%TO.N,GND*%
X178975000Y-82250000D03*
D11*
%TO.P,D12,2,A*%
%TO.N,TOUT*%
X181515000Y-82250000D03*
%TD*%
D16*
%TO.P,SW1,1,1*%
%TO.N,Net-(U1-VCC)*%
X158500000Y-110500000D03*
X165000000Y-110500000D03*
%TO.P,SW1,2,2*%
%TO.N,Net-(BT1-+)*%
X158500000Y-115000000D03*
X165000000Y-115000000D03*
%TD*%
D17*
%TO.N,Net-(BT1-+)*%
X158500000Y-115000000D02*
X165000000Y-115000000D01*
%TO.N,GND*%
X110460000Y-97500000D02*
X106710000Y-101250000D01*
X180176000Y-81049000D02*
X178975000Y-82250000D01*
X170176000Y-95951000D02*
X172012471Y-95951000D01*
X143984068Y-84484068D02*
X146750000Y-87250000D01*
X163201000Y-100451000D02*
X165037471Y-100451000D01*
X182012471Y-81049000D02*
X180176000Y-81049000D01*
X173661000Y-77799000D02*
X172460000Y-79000000D01*
X136799000Y-107451000D02*
X138250000Y-106000000D01*
X182716000Y-81752529D02*
X182012471Y-81049000D01*
X147451000Y-105701000D02*
X150759000Y-105701000D01*
X150759000Y-105701000D02*
X154210000Y-102250000D01*
X157799000Y-103451000D02*
X162000000Y-99250000D01*
X129019000Y-83212913D02*
X130290155Y-84484068D01*
X129019000Y-82367087D02*
X129019000Y-83212913D01*
X175624000Y-77799000D02*
X173661000Y-77799000D01*
X106710000Y-101250000D02*
X109710000Y-104250000D01*
X155411000Y-103451000D02*
X157799000Y-103451000D01*
X168975000Y-94750000D02*
X170176000Y-95951000D01*
X139451000Y-107201000D02*
X143549000Y-107201000D01*
X109710000Y-104250000D02*
X114000000Y-104250000D01*
X175475000Y-88750000D02*
X176676000Y-89951000D01*
X129960000Y-106250000D02*
X131161000Y-107451000D01*
X170210000Y-81250000D02*
X172460000Y-79000000D01*
X110460000Y-94000000D02*
X110460000Y-97500000D01*
X148600000Y-72000000D02*
X138831000Y-81769000D01*
X114000000Y-104250000D02*
X115250000Y-105500000D01*
X178975000Y-82250000D02*
X178975000Y-81150000D01*
X115250000Y-105500000D02*
X121960000Y-105500000D01*
X143549000Y-107201000D02*
X146250000Y-104500000D01*
X176676000Y-89951000D02*
X178512471Y-89951000D01*
X182716000Y-85747471D02*
X182716000Y-81752529D01*
X123161000Y-106701000D02*
X129509000Y-106701000D01*
X138831000Y-81769000D02*
X129617087Y-81769000D01*
X129509000Y-106701000D02*
X129960000Y-106250000D01*
X130290155Y-84484068D02*
X143984068Y-84484068D01*
X172012471Y-95951000D02*
X175475000Y-92488471D01*
X129617087Y-81769000D02*
X129019000Y-82367087D01*
X168975000Y-96513471D02*
X168975000Y-94750000D01*
X146250000Y-104500000D02*
X147451000Y-105701000D01*
X178512471Y-89951000D02*
X182716000Y-85747471D01*
X138250000Y-106000000D02*
X139451000Y-107201000D01*
X165037471Y-100451000D02*
X168975000Y-96513471D01*
X175475000Y-92488471D02*
X175475000Y-88750000D01*
X131161000Y-107451000D02*
X136799000Y-107451000D01*
X121960000Y-105500000D02*
X123161000Y-106701000D01*
X178975000Y-81150000D02*
X175624000Y-77799000D01*
X162000000Y-99250000D02*
X163201000Y-100451000D01*
X162750000Y-81250000D02*
X170210000Y-81250000D01*
X154210000Y-102250000D02*
X155411000Y-103451000D01*
%TO.N,Net-(U1-THRES)*%
X130124055Y-84885068D02*
X135508018Y-84885068D01*
X146750000Y-88520000D02*
X147724999Y-88520000D01*
X128618000Y-83379013D02*
X130124055Y-84885068D01*
X152510000Y-89790000D02*
X151700000Y-89790000D01*
X148994999Y-89790000D02*
X151700000Y-89790000D01*
X136432000Y-81368000D02*
X129450987Y-81368000D01*
X135508018Y-84885068D02*
X139142950Y-88520000D01*
X139142950Y-88520000D02*
X146750000Y-88520000D01*
X138800000Y-79000000D02*
X136432000Y-81368000D01*
X160250000Y-81250000D02*
X160250000Y-82050000D01*
X147724999Y-88520000D02*
X148994999Y-89790000D01*
X160250000Y-82050000D02*
X152510000Y-89790000D01*
X129450987Y-81368000D02*
X128618000Y-82200987D01*
X128618000Y-82200987D02*
X128618000Y-83379013D01*
%TO.N,TOUT*%
X109250000Y-101250000D02*
X113540000Y-101250000D01*
X124979770Y-79000000D02*
X113000000Y-90979770D01*
X133951000Y-104799000D02*
X139589000Y-104799000D01*
X147589000Y-103299000D02*
X148790000Y-104500000D01*
X167774000Y-93549000D02*
X170314000Y-93549000D01*
X143491000Y-103299000D02*
X147589000Y-103299000D01*
X178015000Y-85750000D02*
X181515000Y-82250000D01*
X156750000Y-102250000D02*
X160951000Y-98049000D01*
X132500000Y-106250000D02*
X133951000Y-104799000D01*
X139589000Y-104799000D02*
X140790000Y-106000000D01*
X134750000Y-79000000D02*
X124979770Y-79000000D01*
X155549000Y-101049000D02*
X156750000Y-102250000D01*
X174274000Y-87549000D02*
X176814000Y-87549000D01*
X180314000Y-83451000D02*
X177774000Y-83451000D01*
X124500000Y-105500000D02*
X125400000Y-104600000D01*
X164540000Y-96783000D02*
X167774000Y-93549000D01*
X113540000Y-101250000D02*
X116540000Y-104250000D01*
X164540000Y-99250000D02*
X164540000Y-96783000D01*
X148790000Y-104500000D02*
X152241000Y-101049000D01*
X181515000Y-82250000D02*
X180314000Y-83451000D01*
X178015000Y-88750000D02*
X178015000Y-85750000D01*
X152241000Y-101049000D02*
X155549000Y-101049000D01*
X123250000Y-104250000D02*
X124500000Y-105500000D01*
X170314000Y-93549000D02*
X171515000Y-94750000D01*
X177774000Y-83451000D02*
X175000000Y-80677000D01*
X176814000Y-87549000D02*
X178015000Y-88750000D01*
X130850000Y-104600000D02*
X132500000Y-106250000D01*
X163339000Y-98049000D02*
X164540000Y-99250000D01*
X116540000Y-104250000D02*
X123250000Y-104250000D01*
X160951000Y-98049000D02*
X163339000Y-98049000D01*
X113000000Y-94000000D02*
X113000000Y-97500000D01*
X171515000Y-94750000D02*
X171515000Y-90308000D01*
X140790000Y-106000000D02*
X143491000Y-103299000D01*
X113000000Y-90979770D02*
X113000000Y-94000000D01*
X113000000Y-97500000D02*
X109250000Y-101250000D01*
X125400000Y-104600000D02*
X130850000Y-104600000D01*
X171515000Y-90308000D02*
X174274000Y-87549000D01*
X175000000Y-80677000D02*
X175000000Y-79000000D01*
%TO.N,Net-(U1-DISCH)*%
X138800000Y-86620000D02*
X140099000Y-87919000D01*
X145623032Y-82790000D02*
X151353032Y-88520000D01*
X151353032Y-88520000D02*
X151700000Y-88520000D01*
X130040000Y-82790000D02*
X145623032Y-82790000D01*
X151099000Y-87919000D02*
X151700000Y-88520000D01*
X140099000Y-87919000D02*
X151099000Y-87919000D01*
%TO.N,Net-(U1-VCC)*%
X158801000Y-80149000D02*
X151700000Y-87250000D01*
X147351000Y-90459000D02*
X152927160Y-90459000D01*
X161351000Y-80464840D02*
X161035160Y-80149000D01*
X152927160Y-90459000D02*
X161351000Y-82035160D01*
X127500000Y-85330000D02*
X133230000Y-91060000D01*
X158500000Y-110500000D02*
X165000000Y-110500000D01*
X146750000Y-91060000D02*
X147351000Y-90459000D01*
X161035160Y-80149000D02*
X158801000Y-80149000D01*
X133230000Y-91060000D02*
X146750000Y-91060000D01*
X161351000Y-82035160D02*
X161351000Y-80464840D01*
%TO.N,Net-(U1-OUT)*%
X137920000Y-89790000D02*
X134750000Y-86620000D01*
X146750000Y-89790000D02*
X137920000Y-89790000D01*
%TD*%
M02*
