%TF.GenerationSoftware,KiCad,Pcbnew,9.0.7*%
%TF.CreationDate,2026-04-17T14:43:35+05:30*%
%TF.ProjectId,blinkblinkhello,626c696e-6b62-46c6-996e-6b68656c6c6f,rev?*%
%TF.SameCoordinates,Original*%
%TF.FileFunction,Soldermask,Bot*%
%TF.FilePolarity,Negative*%
%FSLAX46Y46*%
G04 Gerber Fmt 4.6, Leading zero omitted, Abs format (unit mm)*
G04 Created by KiCad (PCBNEW 9.0.7) date 2026-04-17 14:43:35*
%MOMM*%
%LPD*%
G01*
G04 APERTURE LIST*
G04 Aperture macros list*
%AMRoundRect*
0 Rectangle with rounded corners*
0 $1 Rounding radius*
0 $2 $3 $4 $5 $6 $7 $8 $9 X,Y pos of 4 corners*
0 Add a 4 corners polygon primitive as box body*
4,1,4,$2,$3,$4,$5,$6,$7,$8,$9,$2,$3,0*
0 Add four circle primitives for the rounded corners*
1,1,$1+$1,$2,$3*
1,1,$1+$1,$4,$5*
1,1,$1+$1,$6,$7*
1,1,$1+$1,$8,$9*
0 Add four rect primitives between the rounded corners*
20,1,$1+$1,$2,$3,$4,$5,0*
20,1,$1+$1,$4,$5,$6,$7,0*
20,1,$1+$1,$6,$7,$8,$9,0*
20,1,$1+$1,$8,$9,$2,$3,0*%
G04 Aperture macros list end*
%ADD10R,1.800000X1.800000*%
%ADD11C,1.800000*%
%ADD12C,1.440000*%
%ADD13RoundRect,0.250000X-0.550000X-0.550000X0.550000X-0.550000X0.550000X0.550000X-0.550000X0.550000X0*%
%ADD14C,1.600000*%
%ADD15C,2.000000*%
G04 APERTURE END LIST*
D10*
%TO.C,D4*%
X121960000Y-105500000D03*
D11*
X124500000Y-105500000D03*
%TD*%
D10*
%TO.C,D2*%
X106710000Y-101250000D03*
D11*
X109250000Y-101250000D03*
%TD*%
D10*
%TO.C,D9*%
X162000000Y-99250000D03*
D11*
X164540000Y-99250000D03*
%TD*%
D10*
%TO.C,D13*%
X172460000Y-79000000D03*
D11*
X175000000Y-79000000D03*
%TD*%
D12*
%TO.C,R3*%
X127500000Y-85330000D03*
X130040000Y-82790000D03*
X127500000Y-80250000D03*
%TD*%
D13*
%TO.C,C1*%
X160250000Y-81250000D03*
D14*
X162750000Y-81250000D03*
%TD*%
D10*
%TO.C,D8*%
X154210000Y-102250000D03*
D11*
X156750000Y-102250000D03*
%TD*%
D14*
%TO.C,R1*%
X134750000Y-86620000D03*
X134750000Y-79000000D03*
%TD*%
D13*
%TO.C,BT1*%
X145000000Y-72000000D03*
D14*
X148600000Y-72000000D03*
%TD*%
D10*
%TO.C,D1*%
X110460000Y-94000000D03*
D11*
X113000000Y-94000000D03*
%TD*%
D10*
%TO.C,D11*%
X175475000Y-88750000D03*
D11*
X178015000Y-88750000D03*
%TD*%
D10*
%TO.C,D5*%
X129960000Y-106250000D03*
D11*
X132500000Y-106250000D03*
%TD*%
D14*
%TO.C,R2*%
X138800000Y-86620000D03*
X138800000Y-79000000D03*
%TD*%
D10*
%TO.C,D6*%
X138250000Y-106000000D03*
D11*
X140790000Y-106000000D03*
%TD*%
D10*
%TO.C,D10*%
X168975000Y-94750000D03*
D11*
X171515000Y-94750000D03*
%TD*%
D10*
%TO.C,D7*%
X146250000Y-104500000D03*
D11*
X148790000Y-104500000D03*
%TD*%
D10*
%TO.C,D3*%
X114000000Y-104250000D03*
D11*
X116540000Y-104250000D03*
%TD*%
D10*
%TO.C,D12*%
X178975000Y-82250000D03*
D11*
X181515000Y-82250000D03*
%TD*%
D15*
%TO.C,SW1*%
X158500000Y-110500000D03*
X165000000Y-110500000D03*
X158500000Y-115000000D03*
X165000000Y-115000000D03*
%TD*%
M02*
